<svg xmlns="http://www.w3.org/2000/svg" width="35.322" height="40" viewBox="0 0 35.322 40">
  <g id="Group_5622" data-name="Group 5622" transform="translate(-20 -28)">
    <g id="Group_5620" data-name="Group 5620" transform="translate(20 28)">
      <g id="Group_2" data-name="Group 2" transform="translate(0 0)">
        <g id="Group_5621" data-name="Group 5621">
          <path id="Path_1" data-name="Path 1" d="M329.5,28.117a.883.883,0,1,0,.068-.672.882.882,0,0,0-.068.672M332,29.465a.884.884,0,1,0,.068-.671.882.882,0,0,0-.068.671m2.506,1.347a.884.884,0,1,0,.068-.671.881.881,0,0,0-.068.671m3.1.249a.883.883,0,1,0,.671.068.88.88,0,0,0-.671-.068m-6.762-5.45a.883.883,0,1,0,.068-.671.88.88,0,0,0-.068.671m2.506,1.347a.883.883,0,1,0,.068-.671.881.881,0,0,0-.068.671m2.507,1.347a.882.882,0,1,0,.068-.671.879.879,0,0,0-.068.671m3.1.249a.884.884,0,1,0,.671.068.882.882,0,0,0-.671-.068m-10.616-4.291a.884.884,0,1,0,.068-.671.882.882,0,0,0-.068.671m3.854-1.159a.882.882,0,1,0,.068-.671.88.88,0,0,0-.068.671m2.507,1.348a.883.883,0,1,0,.068-.671.88.88,0,0,0-.068.671m2.506,1.347a.884.884,0,1,0,.068-.671.882.882,0,0,0-.068.671m3.1.249a.883.883,0,1,0,.671.068.884.884,0,0,0-.671-.068m-10.616-4.291a.883.883,0,1,0,.068-.671.877.877,0,0,0-.068.671M333.54,20.6a.884.884,0,1,0,.068-.671.883.883,0,0,0-.068.671m2.507,1.347a.882.882,0,1,0,.068-.671.88.88,0,0,0-.068.671m2.506,1.347a.883.883,0,1,0,.068-.671.879.879,0,0,0-.068.671M326.992,26.77a.882.882,0,1,0,.068-.672.879.879,0,0,0-.068.672m14.377-13.409-1.784.857-1.784.857,2.053,1.1,2.053,1.1-.269-1.961ZM328.151,30.623a.883.883,0,1,0,.068-.671.88.88,0,0,0-.068.671m2.507,1.348a.883.883,0,1,0,.068-.671.882.882,0,0,0-.068.671m2.506,1.347a.884.884,0,1,0,.068-.671.882.882,0,0,0-.068.671M347.716.254a1.187,1.187,0,0,1,.92-.241l.991.533.99.532a1.1,1.1,0,0,1-.141,1.652,16.082,16.082,0,0,0-2.331,3.76,17.66,17.66,0,0,1-9.375,31.12,10.608,10.608,0,0,1-2.656.162c4.376-.276,8.019-3.239,9.407-8.424a21.548,21.548,0,0,0,.594-5.211,38.351,38.351,0,0,0-.292-5s-1.039-7.128-1.167-7.786a1.782,1.782,0,0,1,.114-1.107l1.618-3.009c.549-1.021,1.781-3.678,2.718-4.509a1.1,1.1,0,0,0,.142-1.652l-.991-.532Zm-10.88,2.14a17.588,17.588,0,0,1,7.77,1.8c-.356.646-.7,1.228-.9,1.607l-1.617,3.009a1.785,1.785,0,0,1-.861.706c-.619.256-7.137,3.321-7.137,3.321a38.446,38.446,0,0,0-4.329,2.513,21.521,21.521,0,0,0-4.019,3.37c-4.825,5.448-3.958,12.1,1.479,16.155a17.662,17.662,0,0,1,9.613-32.477" transform="translate(-319.175 0.001)" fill="#F7EED3" fill-rule="evenodd"/>
          <path id="Path_2" data-name="Path 2" d="M340.7,73.994c7.527,0,13.628.5,13.628,1.113s-6.1,1.113-13.628,1.113-13.628-.5-13.628-1.113,6.1-1.113,13.628-1.113" transform="translate(-323.042 -36.22)" fill="#F7EED3" fill-rule="evenodd"/>
        </g>
      </g>
    </g>
  </g>
</svg>