<svg xmlns="http://www.w3.org/2000/svg" xmlns:xlink="http://www.w3.org/1999/xlink" viewBox="0 0 237.59 60">
  <defs>
    <clipPath id="clip-path">
      <rect id="Rectangle_2" data-name="Rectangle 2" width="237.59" height="60" fill="#F7EED3"/>
    </clipPath>
  </defs>
  <g id="Group_3" data-name="Group 3" transform="translate(31 -369)">
    <g id="Group_2" data-name="Group 2" transform="translate(-31 369)">
      <g id="Group_1" data-name="Group 1" transform="translate(0 0)" clip-path="url(#clip-path)">
        <path id="Path_1" data-name="Path 1" d="M329.723,28.729a.9.9,0,1,0,.07-.686.9.9,0,0,0-.07.686m2.561,1.377a.9.9,0,1,0,.07-.686.9.9,0,0,0-.07.686m2.561,1.377a.9.9,0,1,0,.07-.686.9.9,0,0,0-.07.686m3.165.255a.9.9,0,1,0,.686.069.9.9,0,0,0-.686-.069M331.1,26.168a.9.9,0,1,0,.069-.686.9.9,0,0,0-.069.686m2.561,1.377a.9.9,0,1,0,.07-.686.9.9,0,0,0-.07.686m2.561,1.377a.9.9,0,1,0,.069-.686.9.9,0,0,0-.069.686m3.164.255a.9.9,0,1,0,.686.07.9.9,0,0,0-.686-.07m-10.847-4.384a.9.9,0,1,0,.07-.686.9.9,0,0,0-.07.686m3.938-1.185a.9.9,0,1,0,.069-.686.9.9,0,0,0-.069.686m2.561,1.377a.9.9,0,1,0,.069-.686.9.9,0,0,0-.069.686m2.561,1.377a.9.9,0,1,0,.07-.686.9.9,0,0,0-.07.686m3.165.254a.9.9,0,1,0,.685.07.9.9,0,0,0-.685-.07m-10.847-4.384a.9.9,0,1,0,.069-.686.9.9,0,0,0-.069.686m3.937-1.184a.9.9,0,1,0,.07-.686.9.9,0,0,0-.07.686m2.561,1.377a.9.9,0,1,0,.069-.686.9.9,0,0,0-.069.686m2.561,1.377a.9.9,0,1,0,.07-.686.9.9,0,0,0-.07.686m-11.812,3.553a.9.9,0,1,0,.069-.686.9.9,0,0,0-.069.686m14.69-13.7-1.823.876-1.823.876,2.1,1.128,2.1,1.128-.275-2ZM328.346,31.29a.9.9,0,1,0,.069-.686.9.9,0,0,0-.069.686m2.561,1.377a.9.9,0,1,0,.069-.686.9.9,0,0,0-.069.686m2.561,1.377a.9.9,0,1,0,.07-.686.9.9,0,0,0-.07.686M348.337.259a1.213,1.213,0,0,1,.94-.246l1.012.545L351.3,1.1a1.122,1.122,0,0,1-.144,1.688,16.433,16.433,0,0,0-2.382,3.842,18.045,18.045,0,0,1-9.579,31.8,10.839,10.839,0,0,1-2.713.166c4.472-.282,8.193-3.31,9.612-8.607a22.016,22.016,0,0,0,.607-5.324,39.2,39.2,0,0,0-.3-5.105s-1.061-7.283-1.192-7.955a1.82,1.82,0,0,1,.116-1.131L346.981,7.4c.561-1.043,1.819-3.758,2.778-4.607A1.122,1.122,0,0,0,349.9,1.1L348.891.558ZM337.22,2.446a17.971,17.971,0,0,1,7.939,1.836c-.364.66-.711,1.254-.919,1.641L342.588,9a1.824,1.824,0,0,1-.88.721c-.632.262-7.293,3.394-7.293,3.394a39.286,39.286,0,0,0-4.423,2.568,21.988,21.988,0,0,0-4.106,3.443c-4.93,5.567-4.045,12.363,1.512,16.506A18.046,18.046,0,0,1,337.22,2.446" transform="translate(-152.691 0)" fill="#F7EED3" fill-rule="evenodd"/>
        <path id="Path_2" data-name="Path 2" d="M341,73.994c7.691,0,13.925.509,13.925,1.137S348.69,76.268,341,76.268s-13.925-.509-13.925-1.137,6.234-1.137,13.925-1.137" transform="translate(-156.47 -35.398)" fill="#F7EED3" fill-rule="evenodd"/>
        <path id="Path_3" data-name="Path 3" d="M6.191,45.62H0V14.683H12.383a12.078,12.078,0,0,1,3.279.442,12.3,12.3,0,0,1,2.945,1.251,12.485,12.485,0,0,1,5.7,7.41,12.362,12.362,0,0,1-.528,8.079,12.419,12.419,0,0,1-6.591,6.591,12.015,12.015,0,0,1-4.8.971H6.191Zm0-24.745V33.258h6.192a5.968,5.968,0,0,0,2.394-.485,6.206,6.206,0,0,0,3.29-3.3,6.2,6.2,0,0,0,0-4.811,6.207,6.207,0,0,0-3.29-3.3,5.968,5.968,0,0,0-2.394-.486Z" transform="translate(0 -7.024)" fill="#F7EED3"/>
        <path id="Path_4" data-name="Path 4" d="M80.043,45.62H73.852V39.428H61.468V45.62H55.3V27.066a12.058,12.058,0,0,1,.971-4.822,12.6,12.6,0,0,1,2.643-3.938,12.367,12.367,0,0,1,3.926-2.653,12.462,12.462,0,0,1,9.644,0,12.415,12.415,0,0,1,6.591,6.591,12.058,12.058,0,0,1,.971,4.822ZM73.852,33.258V27.066a6.047,6.047,0,0,0-.486-2.406,6.183,6.183,0,0,0-3.3-3.3,6.206,6.206,0,0,0-4.811,0,6.181,6.181,0,0,0-3.3,3.3,6.047,6.047,0,0,0-.485,2.406v6.191Z" transform="translate(-26.454 -7.024)" fill="#F7EED3"/>
        <path id="Path_5" data-name="Path 5" d="M135.385,30.151a15.262,15.262,0,0,1-2.115,7.8,15.93,15.93,0,0,1-2.416,3.128,15.316,15.316,0,0,1-3.129,2.427,15.484,15.484,0,0,1-3.7,1.564,15.239,15.239,0,0,1-4.11.55H110.6V14.683h9.32a15.239,15.239,0,0,1,4.11.55,15.506,15.506,0,0,1,3.7,1.564,15.335,15.335,0,0,1,3.129,2.427,15.946,15.946,0,0,1,2.416,3.128,15.262,15.262,0,0,1,2.115,7.8m-6.192,0a9.036,9.036,0,0,0-.722-3.6,9.351,9.351,0,0,0-1.985-2.945,9.458,9.458,0,0,0-2.956-2,9.008,9.008,0,0,0-3.614-.733h-3.085V39.428h3.085a9.108,9.108,0,0,0,3.614-.723,9.231,9.231,0,0,0,4.941-4.94,9.115,9.115,0,0,0,.722-3.614" transform="translate(-52.909 -7.024)" fill="#F7EED3"/>
        <path id="Path_6" data-name="Path 6" d="M187.185,45.619H165.978V14.682h21.207v6.192H172.17v6.192h10.161v6.191H172.17v6.17h15.016Z" transform="translate(-79.403 -7.024)" fill="#F7EED3"/>
        <path id="Path_7" data-name="Path 7" d="M236.154,45.619h-21.66V14.682h6.191V39.428h15.468Z" transform="translate(-102.612 -7.024)" fill="#F7EED3"/>
        <path id="Path_8" data-name="Path 8" d="M288.622,45.619H282L270.069,25.254V45.619h-6.191V14.682H270.5l11.93,20.387V14.682h6.191Z" transform="translate(-126.237 -7.024)" fill="#F7EED3"/>
        <path id="Path_9" data-name="Path 9" d="M427.141,36.774a9.1,9.1,0,0,1-.723,3.614,9.223,9.223,0,0,1-4.94,4.94,9.107,9.107,0,0,1-3.614.723,9.237,9.237,0,0,1-3.312-.6,8.881,8.881,0,0,1-2.858-1.769,8.846,8.846,0,0,1-2.869,1.769,9.32,9.32,0,0,1-3.322.6,9.106,9.106,0,0,1-3.614-.723,9.231,9.231,0,0,1-4.941-4.94,9.1,9.1,0,0,1-.723-3.614V14.682h6.193V36.774a3.142,3.142,0,0,0,.237,1.219,3.015,3.015,0,0,0,.657.992,3.081,3.081,0,0,0,5.038-.992,3.161,3.161,0,0,0,.237-1.219V14.682h6.192V36.774a3.142,3.142,0,0,0,.237,1.219,3.009,3.009,0,0,0,.658.992,3.107,3.107,0,0,0,4.379,0,3.164,3.164,0,0,0,.669-.992,3.031,3.031,0,0,0,.248-1.219V14.682h6.17Z" transform="translate(-189.551 -7.024)" fill="#F7EED3"/>
        <path id="Path_10" data-name="Path 10" d="M189.723,101.753a1.331,1.331,0,1,1-1.331-1.331,1.331,1.331,0,0,1,1.331,1.331" transform="translate(-89.489 -48.041)" fill="#F7EED3"/>
        <path id="Path_11" data-name="Path 11" d="M270.092,101.753a1.331,1.331,0,1,1-1.331-1.331,1.331,1.331,0,0,1,1.331,1.331" transform="translate(-127.936 -48.041)" fill="#F7EED3"/>
        <path id="Path_12" data-name="Path 12" d="M124.84,102.824a3.5,3.5,0,0,1-1.481-.312,2.806,2.806,0,0,1-1.11-.9l.888-1.068a2.531,2.531,0,0,0,.762.72,1.779,1.779,0,0,0,.906.24q1.307,0,1.308-1.548V95.614h-2.987V94.306h4.547v5.567a3.036,3.036,0,0,1-.726,2.219,2.839,2.839,0,0,1-2.106.732" transform="translate(-58.483 -45.115)" fill="#F7EED3"/>
        <path id="Path_13" data-name="Path 13" d="M141.249,104.548a3.559,3.559,0,0,1-1.752-.426,3.178,3.178,0,0,1-1.212-1.17,3.456,3.456,0,0,1,0-3.389,3.153,3.153,0,0,1,1.212-1.157,3.59,3.59,0,0,1,1.752-.42,3.649,3.649,0,0,1,1.77.42,3.115,3.115,0,0,1,1.212,1.152,3.51,3.51,0,0,1,0,3.395,3.124,3.124,0,0,1-1.212,1.17,3.617,3.617,0,0,1-1.77.426m0-1.284a1.988,1.988,0,0,0,.984-.24,1.7,1.7,0,0,0,.678-.7,2.455,2.455,0,0,0,0-2.141,1.712,1.712,0,0,0-.678-.691,2.1,2.1,0,0,0-1.949,0,1.759,1.759,0,0,0-.678.691,2.4,2.4,0,0,0,0,2.141,1.746,1.746,0,0,0,.678.7,1.93,1.93,0,0,0,.965.24" transform="translate(-65.943 -46.876)" fill="#F7EED3"/>
        <path id="Path_14" data-name="Path 14" d="M156.558,94.45a.945.945,0,0,1-.69-.264.892.892,0,0,1,0-1.278.958.958,0,0,1,.69-.258.984.984,0,0,1,.69.246.8.8,0,0,1,.27.618.918.918,0,0,1-.264.666.93.93,0,0,1-.7.27m-.755,1.056h1.5v6.406h-1.5Z" transform="translate(-74.437 -44.323)" fill="#F7EED3"/>
        <path id="Path_15" data-name="Path 15" d="M168.571,97.986a3.049,3.049,0,0,1,1.373.3,2.2,2.2,0,0,1,.954.918,3.216,3.216,0,0,1,.348,1.59v3.671h-1.5v-3.479a1.777,1.777,0,0,0-.4-1.272,1.477,1.477,0,0,0-1.121-.42,1.969,1.969,0,0,0-.936.216,1.479,1.479,0,0,0-.63.642,2.311,2.311,0,0,0-.222,1.074v3.239h-1.5V98.058h1.428v1.728l-.252-.528a2.269,2.269,0,0,1,.978-.942,3.192,3.192,0,0,1,1.481-.33" transform="translate(-78.904 -46.876)" fill="#F7EED3"/>
        <path id="Path_16" data-name="Path 16" d="M202.2,102.7v-8.4h3.455a4.631,4.631,0,0,1,1.914.359A2.776,2.776,0,0,1,208.8,95.7a3.162,3.162,0,0,1,0,3.191,2.776,2.776,0,0,1-1.229,1.032,4.631,4.631,0,0,1-1.914.359h-2.591l.7-.731V102.7Zm1.56-2.987-.7-.756h2.519a2.368,2.368,0,0,0,1.554-.438,1.718,1.718,0,0,0,0-2.466,2.4,2.4,0,0,0-1.554-.432h-2.519l.7-.767Z" transform="translate(-96.732 -45.115)" fill="#F7EED3"/>
        <rect id="Rectangle_1" data-name="Rectangle 1" width="1.5" height="8.902" transform="translate(115.236 48.687)" fill="#F7EED3"/>
        <path id="Path_17" data-name="Path 17" d="M231.384,104.548a3.007,3.007,0,0,1-1.26-.246,1.944,1.944,0,0,1-.834-.683,1.735,1.735,0,0,1-.294-.99,1.862,1.862,0,0,1,.258-.972,1.739,1.739,0,0,1,.846-.684,4.019,4.019,0,0,1,1.56-.252h1.86v1h-1.752a1.566,1.566,0,0,0-1.032.246.8.8,0,0,0-.264.606.764.764,0,0,0,.324.648,1.484,1.484,0,0,0,.9.24,1.948,1.948,0,0,0,.99-.252,1.429,1.429,0,0,0,.63-.744l.252.9a1.669,1.669,0,0,1-.774.876,2.858,2.858,0,0,1-1.409.312m2.016-.084v-1.3l-.084-.276v-2.267a1.327,1.327,0,0,0-.4-1.025,1.715,1.715,0,0,0-1.2-.366,3.442,3.442,0,0,0-1.062.168,2.613,2.613,0,0,0-.882.468l-.588-1.092a3.555,3.555,0,0,1,1.229-.594,5.5,5.5,0,0,1,1.482-.2,3.172,3.172,0,0,1,2.153.666,2.591,2.591,0,0,1,.762,2.058v3.755Z" transform="translate(-109.55 -46.876)" fill="#F7EED3"/>
        <path id="Path_18" data-name="Path 18" d="M245.342,106.942a2.948,2.948,0,0,1-.936-.156,2.227,2.227,0,0,1-.78-.432l.6-1.1a1.8,1.8,0,0,0,.516.324,1.508,1.508,0,0,0,.588.12,1.016,1.016,0,0,0,.66-.2,1.841,1.841,0,0,0,.468-.683l.372-.84.12-.179,2.423-5.663h1.44l-3,6.923a4.182,4.182,0,0,1-.666,1.139,2.024,2.024,0,0,1-.816.588,2.8,2.8,0,0,1-.99.168m1.32-2.184-2.891-6.634h1.56l2.351,5.531Z" transform="translate(-116.549 -46.942)" fill="#F7EED3"/>
        <path id="Path_19" data-name="Path 19" d="M285.345,102.7l-2.783-8.4h1.62l2.483,7.594h-.8l2.579-7.594h1.44l2.507,7.594h-.78l2.543-7.594h1.488l-2.783,8.4H291.2l-2.291-6.85h.432l-2.327,6.85Z" transform="translate(-135.175 -45.115)" fill="#F7EED3"/>
        <path id="Path_20" data-name="Path 20" d="M312.778,94.45a.946.946,0,0,1-.69-.264.892.892,0,0,1,0-1.278.959.959,0,0,1,.69-.258.983.983,0,0,1,.69.246.8.8,0,0,1,.27.618.919.919,0,0,1-.263.666.932.932,0,0,1-.7.27m-.756,1.056h1.5v6.406h-1.5Z" transform="translate(-149.171 -44.323)" fill="#F7EED3"/>
        <path id="Path_21" data-name="Path 21" d="M324.79,97.986a3.049,3.049,0,0,1,1.373.3,2.2,2.2,0,0,1,.954.918,3.217,3.217,0,0,1,.348,1.59v3.671h-1.5v-3.479a1.777,1.777,0,0,0-.4-1.272,1.477,1.477,0,0,0-1.121-.42,1.969,1.969,0,0,0-.936.216,1.479,1.479,0,0,0-.63.642,2.31,2.31,0,0,0-.222,1.074v3.239h-1.5V98.058h1.428v1.728l-.252-.528a2.269,2.269,0,0,1,.978-.942,3.192,3.192,0,0,1,1.481-.33" transform="translate(-153.638 -46.876)" fill="#F7EED3"/>
      </g>
    </g>
  </g>
</svg>